<?xml version="1.0" encoding="utf-8"?>
<!-- Generator: Adobe Illustrator 16.0.0, SVG Export Plug-In . SVG Version: 6.00 Build 0)  -->
<!DOCTYPE svg PUBLIC "-//W3C//DTD SVG 1.1//EN" "http://www.w3.org/Graphics/SVG/1.1/DTD/svg11.dtd">
<svg version="1.1" id="Layer_1" xmlns="http://www.w3.org/2000/svg" xmlns:xlink="http://www.w3.org/1999/xlink" x="0px" y="0px"
	 width="81px" height="389px" viewBox="0 0 81 389" enable-background="new 0 0 81 389" xml:space="preserve">
<g id="JsNW0t.tif">
	
		<image overflow="visible" width="50" height="17" id="Layer_0" xlink:href="26511E1964E0C41D.png"  transform="matrix(1 0 0 1 1495 767)">
	</image>
</g>
<g id="yLGoib_1_">
	
		<image overflow="visible" width="29" height="25" id="yLGoib_2_" xlink:href="26511E1964E0C423.jpg"  transform="matrix(1 0 0 1 1198 807)">
	</image>
</g>
<g id="akQPbh_1_">
	
		<image overflow="visible" width="23" height="24" id="akQPbh_2_" xlink:href="26511E1964E0C427.jpg"  transform="matrix(1 0 0 1 1227 656.5)">
	</image>
</g>
<g id="fHErqi_1_">
	
		<image overflow="visible" width="29" height="24" id="fHErqi_2_" xlink:href="26511E1964E0C42A.jpg"  transform="matrix(1 0 0 1 1113.5625 789.2373)">
	</image>
</g>
<g id="ivlV1x_1_">
	
		<image overflow="visible" width="26" height="27" id="ivlV1x_2_" xlink:href="26511E1964E0C42B.jpg"  transform="matrix(1 0 0 1 1158 713)">
	</image>
</g>
<g>
	<path fill="#C74DC7" d="M1143.75,733.062c0,0.828-0.641,0.938-1.469,0.938l0,0c-0.828,0-0.844-0.047-0.844-0.875l0.062-3.188
		c0-0.828,0.172-0.938,1-0.938h-0.406c0.828,0,1.469-0.016,1.469,0.812L1143.75,733.062z"/>
	<path fill="#C74DC7" d="M1143.688,722.312c0,0.828-0.578,0.688-1.406,0.688l0,0c-0.828,0-0.969,0.016-0.969-0.812l0.062-3.5
		c0-0.828,0.297-0.688,1.125-0.688h-0.406c0.828,0,1.406-0.141,1.406,0.688L1143.688,722.312z"/>
	<path fill="#C74DC7" d="M1148.907,728.49c0.708,0.431,0.788,1.229,0.356,1.938l0,0c-0.43,0.707-1.064,0.338-1.773-0.093
		l-1.675-1.093c-0.708-0.432-1.139-0.895-0.708-1.603l-0.211,0.347c0.431-0.707,1.123-1.035,1.832-0.604L1148.907,728.49z"/>
	<path fill="#C74DC7" d="M1139.512,722.77c0.707,0.431,0.789,1.229,0.357,1.938l0,0c-0.431,0.707-1.066,0.338-1.773-0.092
		l-1.676-1.094c-0.708-0.432-1.139-0.895-0.708-1.603l-0.212,0.347c0.432-0.707,1.125-1.035,1.832-0.604L1139.512,722.77z"/>
	<path fill="#C74DC7" d="M1137.282,730.225c-0.727,0.397-1.459,0.068-1.856-0.658l0,0c-0.398-0.728,0.238-1.093,0.966-1.49
		l1.784-0.906c0.727-0.397,1.343-0.539,1.741,0.188l-0.195-0.356c0.397,0.728,0.335,1.491-0.392,1.889L1137.282,730.225z"/>
	<path fill="#C74DC7" d="M1146.932,724.943c-0.727,0.398-1.459,0.069-1.856-0.658l0,0c-0.397-0.727,0.239-1.092,0.966-1.49
		l1.784-0.905c0.728-0.397,1.344-0.54,1.741,0.188l-0.195-0.356c0.398,0.727,0.336,1.49-0.391,1.889L1146.932,724.943z"/>
</g>
<g>
	<path fill="#212429" d="M20.75,273.062c0,0.828-0.641,0.938-1.469,0.938l0,0c-0.828,0-0.844-0.047-0.844-0.875l0.062-3.188
		c0-0.828,0.172-0.938,1-0.938h-0.406c0.828,0,1.469-0.016,1.469,0.812L20.75,273.062z"/>
	<path fill="#212429" d="M20.688,262.312c0,0.828-0.578,0.688-1.406,0.688l0,0c-0.828,0-0.969,0.016-0.969-0.812l0.062-3.5
		c0-0.828,0.297-0.688,1.125-0.688h-0.406c0.828,0,1.406-0.141,1.406,0.688L20.688,262.312z"/>
	<path fill="#212429" d="M25.907,268.49c0.708,0.431,0.788,1.229,0.356,1.938l0,0c-0.43,0.707-1.064,0.338-1.773-0.093l-1.675-1.093
		c-0.708-0.432-1.139-0.895-0.708-1.603l-0.211,0.347c0.431-0.707,1.123-1.035,1.832-0.604L25.907,268.49z"/>
	<path fill="#212429" d="M16.512,262.77c0.707,0.431,0.789,1.229,0.357,1.938l0,0c-0.431,0.707-1.066,0.338-1.773-0.092
		l-1.676-1.094c-0.708-0.432-1.139-0.895-0.708-1.603l-0.212,0.347c0.432-0.707,1.125-1.035,1.832-0.604L16.512,262.77z"/>
	<path fill="#212429" d="M14.282,270.225c-0.727,0.397-1.459,0.068-1.856-0.658l0,0c-0.398-0.728,0.238-1.093,0.966-1.49
		l1.784-0.906c0.727-0.397,1.343-0.539,1.741,0.188l-0.195-0.356c0.397,0.728,0.335,1.491-0.392,1.889L14.282,270.225z"/>
	<path fill="#212429" d="M23.932,264.943c-0.727,0.398-1.459,0.069-1.856-0.658l0,0c-0.397-0.727,0.239-1.092,0.966-1.49
		l1.784-0.905c0.728-0.397,1.344-0.54,1.741,0.188l-0.195-0.356c0.398,0.727,0.336,1.49-0.391,1.889L23.932,264.943z"/>
</g>
<path fill="#E75325" d="M1255.984,669.549c0-0.003,0.002-0.005,0.002-0.008c0.02-0.402-0.104-0.876-0.309-1.38
	c-0.025-0.064-0.035-0.136-0.077-0.191c-1.185-1.595-4.663-5.532-4.663-5.532c-1.675,2.709-3.752,4.125-4.298,5.534
	c-0.049,0.108-0.511,1.894-0.521,2.039c-0.119,1.739,2.194,4.259,4.962,4.259c2.767,0,4.919-2.27,4.898-4.27
	C1255.978,669.846,1255.997,669.699,1255.984,669.549z M1251.014,671.629c-1.035,0-2.09-1.094-2.09-2.129s0.367-2.266,2.109-2.266
	c1.383,0,2.133,0.578,2.07,2.217C1253.064,670.486,1252.049,671.629,1251.014,671.629z"/>
<path fill="#E75325" d="M1544.938,797.375c0-0.002-0.031,0.689-0.031,0.688c0.012-0.252,0.121-0.573-0.008-0.89
	c-0.015-0.04-0.021-0.084-0.048-0.119c-0.741-1-2.851-3.466-2.851-3.466c-1,0.412-2.422,2.584-2.763,3.467
	c-0.03,0.068-0.229,0.763-0.234,0.854c-0.075,1.09,1.282,3.091,3.017,3.091c1.733,0,2.855-1.969,2.949-2.156
	C1545.012,798.757,1544.945,797.469,1544.938,797.375z M1541.958,799.188c-0.37,0-0.725,0.271-0.978-0.098
	c-0.191-0.278-0.312-0.601-0.312-0.879c0-0.647,0.158-1.336,1.249-1.336c0.867,0,1.353,0.036,1.312,1.062
	c-0.009,0.243,0.038,0.768-0.129,1.023C1542.822,799.389,1542.363,799.188,1541.958,799.188z"/>
<path fill="#212429" d="M24.87,243.111c0-0.003,0.002-0.005,0.002-0.008c0.02-0.402-0.104-0.876-0.309-1.38
	c-0.025-0.064-0.035-0.136-0.077-0.191c-1.185-1.595-4.663-5.532-4.663-5.532c-1.675,2.709-3.752,4.125-4.298,5.534
	c-0.049,0.108-0.511,1.894-0.521,2.039c-0.119,1.739,2.194,4.259,4.962,4.259c2.767,0,4.919-2.27,4.898-4.27
	C24.863,243.408,24.882,243.262,24.87,243.111z M19.899,245.191c-1.035,0-2.09-1.094-2.09-2.129s0.367-2.266,2.109-2.266
	c1.383,0,2.133,0.578,2.07,2.217C21.95,244.049,20.934,245.191,19.899,245.191z"/>
<path fill="#6ACDFC" d="M1131,810.125c-1.656,0-3.312,0.5-3.781,2.219l-0.438,0.031c-0.531-1.75-2.531-2.281-3.781-2.25
	c-2.14,0.054-3.875,1.734-3.875,3.875s1.734,3.764,3.875,3.764c1.792,0,2.375-0.295,3.406-1.764l1.094-0.031
	c0.625,1.5,1.708,1.795,3.5,1.795c2.141,0,3.875-1.679,3.875-3.819C1134.875,811.805,1133.141,810.125,1131,810.125z
	 M1122.938,815.781c-1.019,0-1.844-0.825-1.844-1.844s0.825-1.844,1.844-1.844s1.844,0.825,1.844,1.844
	S1123.956,815.781,1122.938,815.781z M1130.965,815.858c-1.02,0-1.844-0.85-1.844-1.868c0-1.018,0.824-1.842,1.844-1.842
	c1.017,0,1.842,0.825,1.842,1.842C1132.807,815.009,1131.981,815.858,1130.965,815.858z"/>
<path fill="#212429" d="M23.875,285.001c-1.656,0-3.312,0.5-3.781,2.219l-0.438,0.031c-0.531-1.75-2.531-2.281-3.781-2.25
	c-2.14,0.053-3.875,1.734-3.875,3.875s1.734,3.764,3.875,3.764c1.792,0,2.375-0.295,3.406-1.764l1.094-0.031
	c0.625,1.5,1.708,1.795,3.5,1.795c2.141,0,3.875-1.68,3.875-3.82C27.75,286.68,26.016,285.001,23.875,285.001z M15.812,290.658
	c-1.019,0-1.844-0.826-1.844-1.844c0-1.02,0.825-1.844,1.844-1.844s1.844,0.824,1.844,1.844
	C17.656,289.832,16.831,290.658,15.812,290.658z M23.84,290.734c-1.02,0-1.844-0.85-1.844-1.867s0.824-1.842,1.844-1.842
	c1.017,0,1.842,0.824,1.842,1.842S24.856,290.734,23.84,290.734z"/>
<polygon fill="#F9D200" points="1224.25,815.125 1229.333,818 1230.5,818 1235.083,814.875 1237,816.479 1233.5,819.115 
	1233.375,820.433 1236.833,823.167 1235.375,824.562 1230.188,821.499 1229.531,821.438 1224.4,824.583 1222.992,822.917 
	1226.667,820.417 1226.583,819.25 1223.125,816.5 "/>
<polygon fill="#212429" points="14.25,305.125 19.333,308 20.5,308 25.083,304.875 27,306.479 23.5,309.115 23.375,310.433 
	26.833,313.167 25.375,314.562 20.188,311.499 19.531,311.438 14.4,314.583 12.992,312.917 16.667,310.417 16.583,309.25 
	13.125,306.5 "/>
<g>
	<path fill="#212429" d="M16.383,58.426c0.102-0.043,0.219-0.079,0.352-0.108s0.269-0.053,0.407-0.07s0.277-0.03,0.416-0.038
		s0.265-0.012,0.378-0.012c0.344,0,0.658,0.029,0.943,0.088s0.529,0.155,0.732,0.29s0.36,0.312,0.472,0.533s0.167,0.493,0.167,0.817
		c0,0.258-0.038,0.49-0.114,0.697s-0.173,0.399-0.29,0.577s-0.242,0.349-0.375,0.513s-0.258,0.334-0.375,0.51
		s-0.214,0.362-0.29,0.56s-0.114,0.417-0.114,0.659v0.574h-0.973v-0.627c0-0.332,0.038-0.617,0.114-0.855s0.173-0.449,0.29-0.633
		s0.242-0.348,0.375-0.492s0.258-0.287,0.375-0.428s0.214-0.289,0.29-0.445s0.114-0.336,0.114-0.539
		c0-0.199-0.039-0.362-0.117-0.489s-0.184-0.227-0.316-0.299s-0.286-0.121-0.46-0.146s-0.356-0.038-0.548-0.038
		c-0.266,0-0.516,0.012-0.75,0.035s-0.424,0.047-0.568,0.07L16.383,58.426z M17.139,65.838c0-0.121,0.021-0.232,0.064-0.334
		s0.104-0.189,0.182-0.264s0.169-0.133,0.272-0.176S17.875,65,18,65c0.121,0,0.234,0.021,0.34,0.064s0.197,0.102,0.275,0.176
		s0.139,0.162,0.182,0.264s0.064,0.213,0.064,0.334s-0.021,0.232-0.064,0.334s-0.104,0.19-0.182,0.267s-0.17,0.136-0.275,0.179
		s-0.219,0.064-0.34,0.064c-0.125,0-0.239-0.021-0.343-0.064s-0.194-0.103-0.272-0.179s-0.139-0.165-0.182-0.267
		S17.139,65.959,17.139,65.838z"/>
</g>
<g>
	<polygon points="962.284,889 957.456,884 957,884 957,889 	"/>
	<polygon points="956,890 956,884 951,884 951,900 963,900 963,890 	"/>
</g>
<polygon points="965.88,890 972.639,897.726 979.459,890 "/>
<g>
	<polygon points="962.284,831 957.456,826 957,826 957,831 	"/>
	<polygon points="956,832 956,826 951,826 951,842 963,842 963,832 	"/>
</g>
<polygon points="968,832 972.639,837.5 977.5,832 "/>
<g>
	<polygon points="1110.284,158 1105.456,153 1105,153 1105,158 	"/>
	<polygon points="1104,159 1104,153 1099,153 1099,169 1111,169 1111,159 	"/>
</g>
<polygon points="1116,159 1120.639,164.5 1125.5,159 "/>
<g>
	<g>
		<polygon points="1017,891 1014.5,888 1014,888 1014,891 		"/>
		<polygon points="1013,892 1013,891 1013,888 1011,888 1011,896 1017,896 1017,892 1014,892 		"/>
	</g>
	<polygon points="1019.969,891 1023.469,895 1027,891 	"/>
</g>
<g>
	<g>
		<polygon fill="#212429" points="21,103 18.5,100 18,100 18,103 		"/>
		<polygon fill="#212429" points="17,104 17,103 17,100 15,100 15,108 21,108 21,104 18,104 		"/>
	</g>
	<polygon fill="#212429" points="23.969,102 27.469,106 31,102 	"/>
</g>
<g>
	<g>
		<polygon fill="#212429" points="15,124.008 15,126 21,126 21,124 		"/>
	</g>
	<g>
		<polygon fill="#212429" points="15,121.008 15,123 21,123 21,121 		"/>
	</g>
	<g>
		<polygon fill="#212429" points="15,118.009 15,119.938 21,119.938 21,118.001 		"/>
	</g>
	<polygon fill="#212429" points="23.969,120 27.469,124 31,120 	"/>
</g>
<g>
	<polygon points="940,999 944.639,1004.5 949.5,999 	"/>
	<circle cx="924.818" cy="997.036" r="2.928"/>
	<circle cx="933.928" cy="997.036" r="2.928"/>
	<circle cx="924.818" cy="1004.843" r="2.928"/>
	<circle cx="933.928" cy="1004.843" r="2.928"/>
</g>
<polygon points="1163,160 1167.639,165.5 1172.5,160 "/>
<circle cx="1147.818" cy="158.036" r="2.928"/>
<circle cx="1156.928" cy="158.036" r="2.928"/>
<circle cx="1147.818" cy="165.843" r="2.928"/>
<circle cx="1156.928" cy="165.843" r="2.928"/>
<g>
	<path d="M1499.8,801.84h-2.22V810h-1.32v-8.16h-1.979v-1.2h1.979v-2.56c0-1.24,0.287-2.123,0.86-2.65
		c0.573-0.526,1.333-0.79,2.28-0.79c0.187,0,0.376,0.014,0.569,0.04c0.193,0.027,0.384,0.061,0.57,0.101l-0.24,1.2
		c-0.16-0.04-0.327-0.073-0.5-0.101c-0.173-0.026-0.347-0.04-0.52-0.04c-0.36,0-0.653,0.061-0.88,0.18
		c-0.228,0.12-0.4,0.29-0.521,0.511c-0.12,0.22-0.2,0.477-0.24,0.77c-0.04,0.294-0.06,0.607-0.06,0.94v2.399h2.22V801.84z"/>
	<path d="M1502.28,805.68c0.04,0.467,0.152,0.907,0.34,1.32c0.187,0.413,0.433,0.77,0.74,1.07c0.306,0.3,0.659,0.536,1.06,0.71
		c0.4,0.173,0.833,0.26,1.3,0.26c0.707,0,1.316-0.163,1.83-0.49c0.514-0.326,0.903-0.703,1.17-1.13l1.021,0.84
		c-0.561,0.707-1.177,1.214-1.851,1.521c-0.673,0.307-1.396,0.46-2.17,0.46c-0.693,0-1.337-0.124-1.93-0.37
		c-0.594-0.247-1.104-0.59-1.53-1.03c-0.427-0.439-0.764-0.96-1.01-1.56c-0.247-0.601-0.37-1.253-0.37-1.96s0.12-1.36,0.36-1.96
		c0.239-0.601,0.573-1.12,1-1.561c0.426-0.439,0.926-0.783,1.5-1.03c0.573-0.246,1.192-0.369,1.859-0.369
		c0.707,0,1.34,0.127,1.9,0.38c0.56,0.253,1.03,0.59,1.41,1.01s0.67,0.913,0.87,1.479c0.199,0.567,0.3,1.171,0.3,1.811v0.6H1502.28z
		 M1508.64,804.6c0-0.893-0.267-1.616-0.8-2.17c-0.533-0.553-1.28-0.83-2.24-0.83c-0.427,0-0.84,0.084-1.239,0.25
		c-0.4,0.167-0.75,0.391-1.051,0.67c-0.3,0.28-0.54,0.601-0.72,0.961c-0.18,0.359-0.27,0.733-0.27,1.119H1508.64z"/>
	<path d="M1516.6,810h-1.479l-3.8-9.36h1.56l3,7.88h0.04l2.98-7.88h1.5L1516.6,810z"/>
	<path d="M1523.04,805.68c0.04,0.467,0.152,0.907,0.34,1.32c0.187,0.413,0.433,0.77,0.74,1.07c0.306,0.3,0.659,0.536,1.06,0.71
		c0.4,0.173,0.833,0.26,1.3,0.26c0.707,0,1.316-0.163,1.83-0.49c0.514-0.326,0.903-0.703,1.17-1.13l1.021,0.84
		c-0.561,0.707-1.177,1.214-1.851,1.521c-0.673,0.307-1.396,0.46-2.17,0.46c-0.693,0-1.337-0.124-1.93-0.37
		c-0.594-0.247-1.104-0.59-1.53-1.03c-0.427-0.439-0.764-0.96-1.01-1.56c-0.247-0.601-0.37-1.253-0.37-1.96s0.12-1.36,0.36-1.96
		c0.239-0.601,0.573-1.12,1-1.561c0.426-0.439,0.926-0.783,1.5-1.03c0.573-0.246,1.192-0.369,1.859-0.369
		c0.707,0,1.34,0.127,1.9,0.38c0.56,0.253,1.03,0.59,1.41,1.01s0.67,0.913,0.87,1.479c0.199,0.567,0.3,1.171,0.3,1.811v0.6H1523.04z
		 M1529.399,804.6c0-0.893-0.267-1.616-0.8-2.17c-0.533-0.553-1.28-0.83-2.24-0.83c-0.427,0-0.84,0.084-1.239,0.25
		c-0.4,0.167-0.75,0.391-1.051,0.67c-0.3,0.28-0.54,0.601-0.72,0.961c-0.18,0.359-0.27,0.733-0.27,1.119H1529.399z"/>
	<path d="M1533.38,803.56c0-0.413-0.01-0.833-0.03-1.26c-0.02-0.427-0.037-0.979-0.05-1.66h1.3v1.74h0.04
		c0.094-0.253,0.227-0.496,0.4-0.729c0.173-0.233,0.383-0.443,0.63-0.631c0.246-0.187,0.533-0.336,0.86-0.449
		c0.326-0.113,0.696-0.17,1.109-0.17c0.373,0,0.7,0.04,0.98,0.119l-0.261,1.301c-0.173-0.066-0.427-0.101-0.76-0.101
		c-0.507,0-0.939,0.097-1.3,0.29s-0.66,0.44-0.9,0.74c-0.239,0.3-0.416,0.623-0.529,0.97s-0.17,0.681-0.17,1V810h-1.32V803.56z"/>
</g>
<g>
	<path fill="#E75325" d="M65.657,366.135c0-0.002-0.031,0.689-0.031,0.688c0.012-0.252,0.121-0.573-0.008-0.89
		c-0.015-0.04-0.021-0.084-0.048-0.119c-0.741-1-2.851-3.466-2.851-3.466c-1,0.412-2.422,2.584-2.763,3.467
		c-0.03,0.068-0.229,0.763-0.234,0.854c-0.075,1.09,1.282,3.091,3.017,3.091c1.733,0,2.855-1.969,2.949-2.156
		C65.731,367.517,65.665,366.229,65.657,366.135z M62.678,367.947c-0.37,0-0.725,0.271-0.978-0.098
		c-0.191-0.278-0.312-0.601-0.312-0.879c0-0.647,0.158-1.336,1.249-1.336c0.867,0,1.353,0.036,1.312,1.062
		c-0.009,0.243,0.038,0.768-0.129,1.023C63.542,368.148,63.083,367.947,62.678,367.947z"/>
	<g>
		<path d="M20.52,370.6H18.3v8.16h-1.32v-8.16H15v-1.2h1.979v-2.56c0-1.24,0.287-2.123,0.86-2.65c0.573-0.526,1.333-0.79,2.28-0.79
			c0.187,0,0.376,0.014,0.569,0.04c0.193,0.027,0.384,0.061,0.57,0.101l-0.24,1.2c-0.16-0.04-0.327-0.073-0.5-0.101
			c-0.173-0.026-0.347-0.04-0.52-0.04c-0.36,0-0.653,0.061-0.88,0.18c-0.228,0.12-0.4,0.29-0.521,0.511
			c-0.12,0.22-0.2,0.477-0.24,0.77c-0.04,0.294-0.06,0.607-0.06,0.94v2.399h2.22V370.6z"/>
		<path d="M23,374.439c0.04,0.467,0.152,0.907,0.34,1.32c0.187,0.413,0.433,0.77,0.74,1.07c0.306,0.3,0.659,0.536,1.06,0.71
			c0.4,0.173,0.833,0.26,1.3,0.26c0.707,0,1.316-0.163,1.83-0.49c0.514-0.326,0.903-0.703,1.17-1.13l1.021,0.84
			c-0.561,0.707-1.177,1.214-1.851,1.521c-0.673,0.307-1.396,0.46-2.17,0.46c-0.693,0-1.337-0.124-1.93-0.37
			c-0.594-0.247-1.104-0.59-1.53-1.03c-0.427-0.439-0.764-0.96-1.01-1.56c-0.247-0.601-0.37-1.253-0.37-1.96s0.12-1.36,0.36-1.96
			c0.239-0.601,0.573-1.12,1-1.561c0.426-0.439,0.926-0.783,1.5-1.03c0.573-0.246,1.192-0.369,1.859-0.369
			c0.707,0,1.34,0.127,1.9,0.38c0.56,0.253,1.03,0.59,1.41,1.01s0.67,0.913,0.87,1.479c0.199,0.567,0.3,1.171,0.3,1.811v0.6H23z
			 M29.359,373.359c0-0.893-0.267-1.616-0.8-2.17c-0.533-0.553-1.28-0.83-2.24-0.83c-0.427,0-0.84,0.084-1.239,0.25
			c-0.4,0.167-0.75,0.391-1.051,0.67c-0.3,0.28-0.54,0.601-0.72,0.961c-0.18,0.359-0.27,0.733-0.27,1.119H29.359z"/>
		<path d="M37.319,378.76H35.84l-3.8-9.36h1.56l3,7.88h0.04l2.98-7.88h1.5L37.319,378.76z"/>
		<path d="M43.76,374.439c0.04,0.467,0.152,0.907,0.34,1.32c0.187,0.413,0.433,0.77,0.74,1.07c0.306,0.3,0.659,0.536,1.06,0.71
			c0.4,0.173,0.833,0.26,1.3,0.26c0.707,0,1.316-0.163,1.83-0.49c0.514-0.326,0.903-0.703,1.17-1.13l1.021,0.84
			c-0.561,0.707-1.177,1.214-1.851,1.521c-0.673,0.307-1.396,0.46-2.17,0.46c-0.693,0-1.337-0.124-1.93-0.37
			c-0.594-0.247-1.104-0.59-1.53-1.03c-0.427-0.439-0.764-0.96-1.01-1.56c-0.247-0.601-0.37-1.253-0.37-1.96s0.12-1.36,0.36-1.96
			c0.239-0.601,0.573-1.12,1-1.561c0.426-0.439,0.926-0.783,1.5-1.03c0.573-0.246,1.192-0.369,1.859-0.369
			c0.707,0,1.34,0.127,1.9,0.38c0.56,0.253,1.03,0.59,1.41,1.01s0.67,0.913,0.87,1.479c0.199,0.567,0.3,1.171,0.3,1.811v0.6H43.76z
			 M50.119,373.359c0-0.893-0.267-1.616-0.8-2.17c-0.533-0.553-1.28-0.83-2.24-0.83c-0.427,0-0.84,0.084-1.239,0.25
			c-0.4,0.167-0.75,0.391-1.051,0.67c-0.3,0.28-0.54,0.601-0.72,0.961c-0.18,0.359-0.27,0.733-0.27,1.119H50.119z"/>
		<path d="M54.1,372.319c0-0.413-0.01-0.833-0.03-1.26c-0.02-0.427-0.037-0.979-0.05-1.66h1.3v1.74h0.04
			c0.094-0.253,0.227-0.496,0.4-0.729c0.173-0.233,0.383-0.443,0.63-0.631c0.246-0.187,0.533-0.336,0.86-0.449
			c0.326-0.113,0.696-0.17,1.109-0.17c0.373,0,0.7,0.04,0.98,0.119l-0.261,1.301c-0.173-0.066-0.427-0.101-0.76-0.101
			c-0.507,0-0.939,0.097-1.3,0.29s-0.66,0.44-0.9,0.74c-0.239,0.3-0.416,0.623-0.529,0.97s-0.17,0.681-0.17,1v5.28H54.1V372.319z"/>
	</g>
</g>
<g>
	<path fill="#E75325" d="M66.098,4.787c0-0.002-0.031,0.689-0.031,0.688c0.012-0.252,0.121-0.573-0.008-0.89
		c-0.015-0.04-0.021-0.084-0.048-0.119C65.27,3.466,63.16,1,63.16,1c-1,0.412-2.422,2.584-2.763,3.467
		c-0.03,0.068-0.229,0.763-0.234,0.854c-0.075,1.09,1.282,3.091,3.017,3.091c1.733,0,2.855-1.969,2.949-2.156
		C66.172,6.169,66.105,4.881,66.098,4.787z M63.118,6.6c-0.37,0-0.725,0.271-0.978-0.098c-0.191-0.278-0.312-0.601-0.312-0.879
		c0-0.647,0.158-1.336,1.249-1.336c0.867,0,1.353,0.036,1.312,1.062c-0.009,0.243,0.038,0.768-0.129,1.023
		C63.982,6.801,63.523,6.6,63.118,6.6z"/>
	<g>
		<path fill="#FFFFFF" d="M20.96,9.252h-2.22v8.16h-1.32v-8.16H15.44v-1.2h1.979v-2.56c0-1.24,0.287-2.123,0.86-2.65
			c0.573-0.526,1.333-0.79,2.28-0.79c0.187,0,0.376,0.014,0.569,0.04c0.193,0.027,0.384,0.061,0.57,0.101l-0.24,1.2
			c-0.16-0.04-0.327-0.073-0.5-0.101c-0.173-0.026-0.347-0.04-0.52-0.04c-0.36,0-0.653,0.061-0.88,0.18
			c-0.228,0.12-0.4,0.29-0.521,0.511c-0.12,0.22-0.2,0.477-0.24,0.77c-0.04,0.294-0.06,0.607-0.06,0.94v2.399h2.22V9.252z"/>
		<path fill="#FFFFFF" d="M23.44,13.092c0.04,0.467,0.152,0.907,0.34,1.32c0.187,0.413,0.433,0.77,0.74,1.07
			c0.306,0.3,0.659,0.536,1.06,0.71c0.4,0.173,0.833,0.26,1.3,0.26c0.707,0,1.316-0.163,1.83-0.49
			c0.514-0.326,0.903-0.703,1.17-1.13l1.021,0.84c-0.561,0.707-1.177,1.214-1.851,1.521c-0.673,0.307-1.396,0.46-2.17,0.46
			c-0.693,0-1.337-0.124-1.93-0.37c-0.594-0.247-1.104-0.59-1.53-1.03c-0.427-0.439-0.764-0.96-1.01-1.56
			c-0.247-0.601-0.37-1.253-0.37-1.96s0.12-1.36,0.36-1.96c0.239-0.601,0.573-1.12,1-1.561c0.426-0.439,0.926-0.783,1.5-1.03
			c0.573-0.246,1.192-0.369,1.859-0.369c0.707,0,1.34,0.127,1.9,0.38c0.56,0.253,1.03,0.59,1.41,1.01s0.67,0.913,0.87,1.479
			c0.199,0.567,0.3,1.171,0.3,1.811v0.6H23.44z M29.8,12.012c0-0.893-0.267-1.616-0.8-2.17c-0.533-0.553-1.28-0.83-2.24-0.83
			c-0.427,0-0.84,0.084-1.239,0.25c-0.4,0.167-0.75,0.391-1.051,0.67c-0.3,0.28-0.54,0.601-0.72,0.961
			c-0.18,0.359-0.27,0.733-0.27,1.119H29.8z"/>
		<path fill="#FFFFFF" d="M37.76,17.412H36.28l-3.8-9.36h1.56l3,7.88h0.04l2.98-7.88h1.5L37.76,17.412z"/>
		<path fill="#FFFFFF" d="M44.2,13.092c0.04,0.467,0.152,0.907,0.34,1.32c0.187,0.413,0.433,0.77,0.74,1.07
			c0.306,0.3,0.659,0.536,1.06,0.71c0.4,0.173,0.833,0.26,1.3,0.26c0.707,0,1.316-0.163,1.83-0.49
			c0.514-0.326,0.903-0.703,1.17-1.13l1.021,0.84c-0.561,0.707-1.177,1.214-1.851,1.521c-0.673,0.307-1.396,0.46-2.17,0.46
			c-0.693,0-1.337-0.124-1.93-0.37c-0.594-0.247-1.104-0.59-1.53-1.03c-0.427-0.439-0.764-0.96-1.01-1.56
			c-0.247-0.601-0.37-1.253-0.37-1.96s0.12-1.36,0.36-1.96c0.239-0.601,0.573-1.12,1-1.561c0.426-0.439,0.926-0.783,1.5-1.03
			c0.573-0.246,1.192-0.369,1.859-0.369c0.707,0,1.34,0.127,1.9,0.38c0.56,0.253,1.03,0.59,1.41,1.01s0.67,0.913,0.87,1.479
			c0.199,0.567,0.3,1.171,0.3,1.811v0.6H44.2z M50.56,12.012c0-0.893-0.267-1.616-0.8-2.17c-0.533-0.553-1.28-0.83-2.24-0.83
			c-0.427,0-0.84,0.084-1.239,0.25c-0.4,0.167-0.75,0.391-1.051,0.67c-0.3,0.28-0.54,0.601-0.72,0.961
			c-0.18,0.359-0.27,0.733-0.27,1.119H50.56z"/>
		<path fill="#FFFFFF" d="M54.54,10.972c0-0.413-0.01-0.833-0.03-1.26c-0.02-0.427-0.037-0.979-0.05-1.66h1.3v1.74h0.04
			c0.094-0.253,0.227-0.496,0.4-0.729c0.173-0.233,0.383-0.443,0.63-0.631c0.246-0.187,0.533-0.336,0.86-0.449
			c0.326-0.113,0.696-0.17,1.109-0.17c0.373,0,0.7,0.04,0.98,0.119L59.52,9.232c-0.173-0.066-0.427-0.101-0.76-0.101
			c-0.507,0-0.939,0.097-1.3,0.29s-0.66,0.44-0.9,0.74c-0.239,0.3-0.416,0.623-0.529,0.97s-0.17,0.681-0.17,1v5.28h-1.32V10.972z"/>
	</g>
</g>
<text transform="matrix(1 0 0 1 1494 854)" font-family="'Avenir-Book'" font-size="20">fever</text>
<g>
	<polygon fill="#212429" points="23.969,138 27.469,142 31,138 	"/>
	<g>
		<path fill="#212429" d="M15.006,140.538c0.918,0,1.936,0.154,2.584,0.805c0.649,0.652,0.85,1.725,0.85,2.649h1.414
			c0-0.507-0.185-0.933-0.354-1.367c-0.116-0.297-0.179-0.621-0.353-0.888c-0.224-0.345-0.348-0.815-0.633-1.115
			c-0.19-0.201-0.531-0.388-0.743-0.573c-0.306-0.266-0.566-0.375-0.917-0.57c-0.222-0.124-0.488-0.19-0.729-0.271
			c-0.342-0.113-0.736-0.15-1.119-0.15V140.538z"/>
	</g>
	<g>
		<path fill="#212429" d="M15.017,137.563c0.697,0,1.391,0.055,1.962,0.187c0.406,0.093,0.741,0.265,1.085,0.417
			c0.34,0.15,0.661,0.325,0.943,0.526c0.454,0.325,1.046,0.899,1.36,1.338c0.279,0.392,0.799,1.354,0.877,1.842
			c0.13,0.814-0.119,1.119-0.12,2.099h1.65c0-4.28-2.479-7.931-7.734-7.931L15.017,137.563z"/>
	</g>
	<rect x="15.016" y="142" fill="#212429" width="1.953" height="1.953"/>
	<path fill="#212429" d="M20.938,143.062"/>
</g>
<path fill="#212429" d="M23.066,83c-0.088,1.346-1.199,2.417-2.566,2.417c-1.424,0-2.583-1.159-2.583-2.583
	c0-1.252,0.897-2.298,2.083-2.532v2.401l4-3.5l-4-3.531v2.63c-2.29,0.252-4.083,2.176-4.083,4.532c0,2.527,2.056,4.583,4.583,4.583
	c2.47,0,4.476-1.968,4.566-4.417H23.066z"/>
<image overflow="visible" width="16" height="32" xlink:href="../images/btn-cancel.png"  transform="matrix(1 0 0 1 1132 365)">
</image>
<image overflow="visible" width="28" height="32" xlink:href="../images/btn-menu-action.png"  transform="matrix(1 0 0 1 1121 570)">
</image>
<image overflow="visible" width="16" height="32" xlink:href="../images/icon-check.png"  transform="matrix(1 0 0 1 1129 445)">
</image>
<rect x="1087" y="582" width="2" height="3"/>
<rect x="1085" y="583" width="1" height="3"/>
<rect x="1084" y="584" width="3" height="1"/>
<rect x="1083" y="586" width="3" height="2"/>
<rect x="1086" y="584" width="1" height="2"/>
<rect x="1085" y="588" width="2" height="2"/>
<rect x="1084" y="589" width="1" height="1"/>
<rect x="1085" y="590" width="1" height="1"/>
<rect x="1087" y="589" width="2" height="1"/>
<rect x="1087" y="590" width="2" height="2"/>
<rect x="1089" y="589" width="3" height="1"/>
<rect x="1090" y="590" width="1" height="1"/>
<rect x="1089" y="588" width="2" height="1"/>
<rect x="1090" y="586" width="3" height="2"/>
<rect x="1089" y="585" width="2" height="1"/>
<rect x="1089" y="584" width="3" height="1"/>
<rect x="1090" y="583" width="1" height="1"/>
<path d="M1125,626c1.104,0,2,0.896,2,2s-0.896,2-2,2s-2-0.896-2-2S1123.896,626,1125,626 M1125,624c-2.205,0-4,1.795-4,4
	s1.795,4,4,4s4-1.795,4-4S1127.205,624,1125,624L1125,624z"/>
<rect x="1124" y="622" width="2" height="2"/>
<rect x="1128" y="627" width="3" height="2"/>
<rect x="1124" y="632" width="2" height="2"/>
<rect x="1119" y="627" width="3" height="2"/>
<rect x="1127.535" y="623.464" transform="matrix(0.7071 0.7071 -0.7071 0.7071 772.1029 -615.0936)" width="2" height="2"/>
<rect x="1126.682" y="630.182" transform="matrix(0.7071 0.7071 -0.7071 0.7071 776.7496 -612.876)" width="3" height="2"/>
<rect x="1120.465" y="630.535" transform="matrix(0.7071 0.7071 -0.7071 0.7071 775.0322 -608.0229)" width="2" height="2"/>
<rect x="1120.318" y="623.818" transform="matrix(0.7071 0.7071 -0.7071 0.7071 770.3856 -610.2406)" width="3" height="2"/>
<g>
	<polygon fill="#212429" points="24.969,161 28.469,165 32,161 	"/>
	<path fill="#212429" d="M23,164v-2h-2.184c-0.035-0.098-0.072-0.193-0.117-0.285l0.981-0.981l-1.414-1.414l-0.981,0.981
		c-0.093-0.044-0.188-0.082-0.285-0.117V158h-2v2.184c-0.098,0.035-0.192,0.072-0.285,0.117l-0.98-0.981l-1.414,1.414l0.98,0.981
		c-0.044,0.093-0.082,0.188-0.117,0.286H13v2h2.185c0.035,0.098,0.072,0.193,0.116,0.286l-1.023,1.023l1.414,1.414l1.023-1.023
		c0.093,0.044,0.188,0.081,0.285,0.116V168h2v-2.184c0.098-0.035,0.192-0.072,0.285-0.117l1.085,1.086l1.414-1.414l-1.085-1.085
		c0.044-0.093,0.082-0.188,0.117-0.286H23z M16,163c0-1.104,0.896-2,2-2s2,0.896,2,2s-0.896,2-2,2S16,164.104,16,163z"/>
</g>
<path d="M1112,614v-2h-2.184c-0.035-0.098-0.072-0.193-0.117-0.285l0.98-0.981l-1.414-1.414l-0.98,0.981
	c-0.093-0.045-0.188-0.082-0.285-0.117V608h-2v2.184c-0.098,0.035-0.192,0.072-0.285,0.117l-0.98-0.981l-1.414,1.414l0.98,0.981
	c-0.045,0.092-0.082,0.188-0.117,0.285H1102v2h2.185c0.034,0.098,0.071,0.193,0.116,0.285l-1.023,1.023l1.414,1.414l1.023-1.023
	c0.093,0.045,0.188,0.082,0.285,0.116V618h2v-2.184c0.098-0.035,0.192-0.072,0.285-0.117l1.085,1.086l1.414-1.414l-1.085-1.086
	c0.045-0.092,0.082-0.188,0.117-0.285H1112z M1105,613c0-1.104,0.896-2,2-2s2,0.896,2,2s-0.896,2-2,2S1105,614.104,1105,613z"/>
<polygon fill="#212429" points="18.5,179 14.969,183 17,183 17,187 20,187 20,183 22,183 "/>
<polygon fill="#212429" points="17,200 18,203 24,196 24,198 18,205 15,200 "/>
<g>
	<polygon fill="#212429" points="25,218 23,218 20.042,221.042 17,218 15,218 18.958,222.042 14.792,226 17,226 20.042,223.208 
		23,226 25,226 21.062,222 	"/>
</g>
<g>
	<path fill="#FFFFFF" d="M55.75,273.062c0,0.828-0.641,0.938-1.469,0.938l0,0c-0.828,0-0.844-0.047-0.844-0.875l0.062-3.188
		c0-0.828,0.172-0.938,1-0.938h-0.406c0.828,0,1.469-0.016,1.469,0.812L55.75,273.062z"/>
	<path fill="#FFFFFF" d="M55.688,262.312c0,0.828-0.578,0.688-1.406,0.688l0,0c-0.828,0-0.969,0.016-0.969-0.812l0.062-3.5
		c0-0.828,0.297-0.688,1.125-0.688h-0.406c0.828,0,1.406-0.141,1.406,0.688L55.688,262.312z"/>
	<path fill="#FFFFFF" d="M60.907,268.49c0.708,0.431,0.788,1.229,0.356,1.938l0,0c-0.43,0.707-1.064,0.338-1.773-0.093l-1.675-1.093
		c-0.708-0.432-1.139-0.895-0.708-1.603l-0.211,0.347c0.431-0.707,1.123-1.035,1.832-0.604L60.907,268.49z"/>
	<path fill="#FFFFFF" d="M51.512,262.77c0.707,0.431,0.789,1.229,0.357,1.938l0,0c-0.431,0.707-1.066,0.338-1.773-0.092
		l-1.676-1.094c-0.708-0.432-1.139-0.895-0.708-1.603l-0.212,0.347c0.432-0.707,1.125-1.035,1.832-0.604L51.512,262.77z"/>
	<path fill="#FFFFFF" d="M49.282,270.225c-0.727,0.397-1.459,0.068-1.856-0.658l0,0c-0.398-0.728,0.238-1.093,0.966-1.49
		l1.784-0.906c0.727-0.397,1.343-0.539,1.741,0.188l-0.195-0.356c0.397,0.728,0.335,1.491-0.392,1.889L49.282,270.225z"/>
	<path fill="#FFFFFF" d="M58.932,264.943c-0.727,0.398-1.459,0.069-1.856-0.658l0,0c-0.397-0.727,0.239-1.092,0.966-1.49
		l1.784-0.905c0.728-0.397,1.344-0.54,1.741,0.188l-0.195-0.356c0.398,0.727,0.336,1.49-0.391,1.889L58.932,264.943z"/>
</g>
<path fill="#FFFFFF" d="M59.87,243.111c0-0.003,0.002-0.005,0.002-0.008c0.02-0.402-0.104-0.876-0.309-1.38
	c-0.025-0.064-0.035-0.136-0.077-0.191c-1.185-1.595-4.663-5.532-4.663-5.532c-1.675,2.709-3.752,4.125-4.298,5.534
	c-0.049,0.108-0.511,1.894-0.521,2.039c-0.119,1.739,2.194,4.259,4.962,4.259c2.767,0,4.919-2.27,4.898-4.27
	C59.863,243.408,59.882,243.262,59.87,243.111z M54.899,245.191c-1.035,0-2.09-1.094-2.09-2.129s0.367-2.266,2.109-2.266
	c1.383,0,2.133,0.578,2.07,2.217C56.95,244.049,55.934,245.191,54.899,245.191z"/>
<path fill="#FFFFFF" d="M58.875,285.001c-1.656,0-3.312,0.5-3.781,2.219l-0.438,0.031c-0.531-1.75-2.531-2.281-3.781-2.25
	c-2.14,0.053-3.875,1.734-3.875,3.875s1.734,3.764,3.875,3.764c1.792,0,2.375-0.295,3.406-1.764l1.094-0.031
	c0.625,1.5,1.708,1.795,3.5,1.795c2.141,0,3.875-1.68,3.875-3.82C62.75,286.68,61.016,285.001,58.875,285.001z M50.812,290.658
	c-1.019,0-1.844-0.826-1.844-1.844c0-1.02,0.825-1.844,1.844-1.844s1.844,0.824,1.844,1.844
	C52.656,289.832,51.831,290.658,50.812,290.658z M58.84,290.734c-1.02,0-1.844-0.85-1.844-1.867s0.824-1.842,1.844-1.842
	c1.017,0,1.842,0.824,1.842,1.842S59.856,290.734,58.84,290.734z"/>
<polygon fill="#FFFFFF" points="49.25,305.125 54.333,308 55.5,308 60.083,304.875 62,306.479 58.5,309.115 58.375,310.433 
	61.833,313.167 60.375,314.562 55.188,311.499 54.531,311.438 49.4,314.583 47.992,312.917 51.667,310.417 51.583,309.25 
	48.125,306.5 "/>
<g>
	<path fill="#FFFFFF" d="M51.383,58.426c0.102-0.043,0.219-0.079,0.352-0.108s0.269-0.053,0.407-0.07s0.277-0.03,0.416-0.038
		s0.265-0.012,0.378-0.012c0.344,0,0.658,0.029,0.943,0.088s0.529,0.155,0.732,0.29s0.36,0.312,0.472,0.533s0.167,0.493,0.167,0.817
		c0,0.258-0.038,0.49-0.114,0.697s-0.173,0.399-0.29,0.577s-0.242,0.349-0.375,0.513s-0.258,0.334-0.375,0.51
		s-0.214,0.362-0.29,0.56s-0.114,0.417-0.114,0.659v0.574h-0.973v-0.627c0-0.332,0.038-0.617,0.114-0.855s0.173-0.449,0.29-0.633
		s0.242-0.348,0.375-0.492s0.258-0.287,0.375-0.428s0.214-0.289,0.29-0.445s0.114-0.336,0.114-0.539
		c0-0.199-0.039-0.362-0.117-0.489s-0.184-0.227-0.316-0.299s-0.286-0.121-0.46-0.146s-0.356-0.038-0.548-0.038
		c-0.266,0-0.516,0.012-0.75,0.035s-0.424,0.047-0.568,0.07L51.383,58.426z M52.139,65.838c0-0.121,0.021-0.232,0.064-0.334
		s0.104-0.189,0.182-0.264s0.169-0.133,0.272-0.176S52.875,65,53,65c0.121,0,0.234,0.021,0.34,0.064s0.197,0.102,0.275,0.176
		s0.139,0.162,0.182,0.264s0.064,0.213,0.064,0.334s-0.021,0.232-0.064,0.334s-0.104,0.19-0.182,0.267s-0.17,0.136-0.275,0.179
		s-0.219,0.064-0.34,0.064c-0.125,0-0.239-0.021-0.343-0.064s-0.194-0.103-0.272-0.179s-0.139-0.165-0.182-0.267
		S52.139,65.959,52.139,65.838z"/>
</g>
<g>
	<g>
		<polygon fill="#FFFFFF" points="56,103 53.5,100 53,100 53,103 		"/>
		<polygon fill="#FFFFFF" points="52,104 52,103 52,100 50,100 50,108 56,108 56,104 53,104 		"/>
	</g>
	<polygon fill="#FFFFFF" points="58.969,102 62.469,106 66,102 	"/>
</g>
<g>
	<g>
		<polygon fill="#FFFFFF" points="50,124.008 50,126 56,126 56,124 		"/>
	</g>
	<g>
		<polygon fill="#FFFFFF" points="50,121.008 50,123 56,123 56,121 		"/>
	</g>
	<g>
		<polygon fill="#FFFFFF" points="50,118.009 50,119.938 56,119.938 56,118.001 		"/>
	</g>
	<polygon fill="#FFFFFF" points="58.969,120 62.469,124 66,120 	"/>
</g>
<g>
	<polygon fill="#FFFFFF" points="58.969,138 62.469,142 66,138 	"/>
	<g>
		<path fill="#FFFFFF" d="M50.006,140.538c0.918,0,1.936,0.154,2.584,0.805c0.649,0.652,0.85,1.725,0.85,2.649h1.414
			c0-0.507-0.185-0.933-0.354-1.367c-0.116-0.297-0.179-0.621-0.353-0.888c-0.224-0.345-0.348-0.815-0.633-1.115
			c-0.19-0.201-0.531-0.388-0.743-0.573c-0.306-0.266-0.566-0.375-0.917-0.57c-0.222-0.124-0.488-0.19-0.729-0.271
			c-0.342-0.113-0.736-0.15-1.119-0.15V140.538z"/>
	</g>
	<g>
		<path fill="#FFFFFF" d="M50.017,137.563c0.697,0,1.391,0.055,1.962,0.187c0.406,0.093,0.741,0.265,1.085,0.417
			c0.34,0.15,0.661,0.325,0.943,0.526c0.454,0.325,1.046,0.899,1.36,1.338c0.279,0.392,0.799,1.354,0.877,1.842
			c0.13,0.814-0.119,1.119-0.12,2.099h1.65c0-4.28-2.479-7.931-7.734-7.931L50.017,137.563z"/>
	</g>
	<rect x="50.016" y="142" fill="#FFFFFF" width="1.953" height="1.953"/>
	<path fill="#FFFFFF" d="M55.938,143.062"/>
</g>
<path fill="#FFFFFF" d="M58.066,83c-0.088,1.346-1.199,2.417-2.566,2.417c-1.424,0-2.583-1.159-2.583-2.583
	c0-1.252,0.897-2.298,2.083-2.532v2.401l4-3.5l-4-3.531v2.63c-2.29,0.252-4.083,2.176-4.083,4.532c0,2.527,2.056,4.583,4.583,4.583
	c2.47,0,4.476-1.968,4.566-4.417H58.066z"/>
<g>
	<polygon fill="#FFFFFF" points="59.969,161 63.469,165 67,161 	"/>
	<path fill="#FFFFFF" d="M58,164v-2h-2.184c-0.035-0.098-0.072-0.193-0.117-0.285l0.981-0.981l-1.414-1.414l-0.981,0.981
		c-0.093-0.044-0.188-0.082-0.285-0.117V158h-2v2.184c-0.098,0.035-0.192,0.072-0.285,0.117l-0.98-0.981l-1.414,1.414l0.98,0.981
		c-0.044,0.093-0.082,0.188-0.117,0.286H48v2h2.185c0.035,0.098,0.072,0.193,0.116,0.286l-1.023,1.023l1.414,1.414l1.023-1.023
		c0.093,0.044,0.188,0.081,0.285,0.116V168h2v-2.184c0.098-0.035,0.192-0.072,0.285-0.117l1.085,1.086l1.414-1.414l-1.085-1.085
		c0.044-0.093,0.082-0.188,0.117-0.286H58z M51,163c0-1.104,0.896-2,2-2s2,0.896,2,2s-0.896,2-2,2S51,164.104,51,163z"/>
</g>
<polygon fill="#FFFFFF" points="53.5,179 49.969,183 52,183 52,187 55,187 55,183 57,183 "/>
<polygon fill="#FFFFFF" points="52,200 53,203 59,196 59,198 53,205 50,200 "/>
<g>
	<polygon fill="#FFFFFF" points="60,218 58,218 55.042,221.042 52,218 50,218 53.958,222.042 49.792,226 52,226 55.042,223.208 
		58,226 60,226 56.062,222 	"/>
</g>
<image overflow="visible" width="22" height="44" xlink:href="../images/icon-search.png"  transform="matrix(1 0 0 1 121 345)">
</image>
<path d="M105.148,381.234c0.303-0.489,0.579-1.052,0.852-1.734c0-2.481-2.019-4.5-4.5-4.5s-4.5,2.019-4.5,4.5s2.019,4.5,4.5,4.5
	c0.975-0.39,1.717-0.783,2.324-1.261l0.174,0.173l0.002,0.002l3.061,3.06l1.415-1.414L105.148,381.234z M102,381.95
	c-0.162,0.033-0.329,0.05-0.5,0.05c-1.381,0-2.5-1.119-2.5-2.5s1.119-2.5,2.5-2.5s2.5,1.119,2.5,2.5
	C104,380.709,103.141,381.718,102,381.95z"/>
<path fill="#212429" d="M22.148,334.259c0.303-0.489,0.579-1.052,0.852-1.734c0-2.481-2.019-4.5-4.5-4.5s-4.5,2.019-4.5,4.5
	s2.019,4.5,4.5,4.5c0.975-0.39,1.717-0.783,2.324-1.261l0.174,0.173L21,335.94l3.061,3.06l1.415-1.414L22.148,334.259z M19,334.976
	c-0.162,0.033-0.329,0.05-0.5,0.05c-1.381,0-2.5-1.119-2.5-2.5s1.119-2.5,2.5-2.5s2.5,1.119,2.5,2.5
	C21,333.735,20.141,334.744,19,334.976z"/>
<path fill="#FFFFFF" d="M56.148,334.259c0.303-0.489,0.579-1.052,0.852-1.734c0-2.481-2.019-4.5-4.5-4.5s-4.5,2.019-4.5,4.5
	s2.019,4.5,4.5,4.5c0.975-0.39,1.717-0.783,2.324-1.261l0.174,0.173L55,335.94l3.061,3.06l1.415-1.414L56.148,334.259z M53,334.976
	c-0.162,0.033-0.329,0.05-0.5,0.05c-1.381,0-2.5-1.119-2.5-2.5s1.119-2.5,2.5-2.5s2.5,1.119,2.5,2.5
	C55,333.735,54.141,334.744,53,334.976z"/>
</svg>
